<?xml version="1.0" encoding="UTF-8" standalone="no"?>
<!-- Created with Inkscape (http://www.inkscape.org/) -->

<svg
   xmlns:dc="http://purl.org/dc/elements/1.1/"
   xmlns:cc="http://creativecommons.org/ns#"
   xmlns:rdf="http://www.w3.org/1999/02/22-rdf-syntax-ns#"
   xmlns:svg="http://www.w3.org/2000/svg"
   xmlns="http://www.w3.org/2000/svg"
   xmlns:sodipodi="http://sodipodi.sourceforge.net/DTD/sodipodi-0.dtd"
   xmlns:inkscape="http://www.inkscape.org/namespaces/inkscape"
   id="svg2"
   version="1.1"
   inkscape:version="0.48.2 r9819"
   width="320.41125"
   height="91.728607"
   xml:space="preserve"
   sodipodi:docname="Likud_Logo.svg"><metadata
     id="metadata8"><rdf:RDF><cc:Work
         rdf:about=""><dc:format>image/svg+xml</dc:format><dc:type
           rdf:resource="http://purl.org/dc/dcmitype/StillImage" /><dc:title /></cc:Work></rdf:RDF></metadata><defs
     id="defs6"><clipPath
       clipPathUnits="userSpaceOnUse"
       id="clipPath16"><path
         d="m 0,283.465 283.465,0 L 283.465,0 0,0 0,283.465 z"
         id="path18"
         inkscape:connector-curvature="0" /></clipPath></defs><sodipodi:namedview
     pagecolor="#ffffff"
     bordercolor="#666666"
     borderopacity="1"
     objecttolerance="10"
     gridtolerance="10"
     guidetolerance="10"
     inkscape:pageopacity="0"
     inkscape:pageshadow="2"
     inkscape:window-width="1280"
     inkscape:window-height="962"
     id="namedview4"
     showgrid="false"
     inkscape:snap-bbox="true"
     inkscape:bbox-paths="true"
     inkscape:bbox-nodes="true"
     inkscape:snap-bbox-midpoints="true"
     inkscape:snap-bbox-edge-midpoints="true"
     showguides="true"
     inkscape:zoom="1.9893175"
     inkscape:cx="219.85112"
     inkscape:cy="10.892025"
     inkscape:window-x="-8"
     inkscape:window-y="-8"
     inkscape:window-maximized="1"
     inkscape:current-layer="g10"
     fit-margin-top="0"
     fit-margin-left="0"
     fit-margin-right="0"
     fit-margin-bottom="0"
     inkscape:guide-bbox="true" /><g
     id="g10"
     inkscape:groupmode="layer"
     inkscape:label="halikud"
     transform="matrix(1.25,0,0,-1.25,-2.5585104,155.71355)"><g
       transform="matrix(2.2130542,0,0,2.2130542,-638.45733,-51.715521)"
       id="g3137"><path
         inkscape:connector-curvature="0"
         id="path34"
         style="fill:#1f5aa5;fill-opacity:1;fill-rule:nonzero;stroke:none"
         d="m 362.507,71.3195 c 0.416,0.277 1.006,0.433 1.738,0.415 7.403,-0.176 8.301,-2.766 17.016,-2.766 6.916,0 11.373,2.49 14.414,4.288 l -2.41,6.401 c -3.043,-1.798 -5.849,-3.634 -11.104,-3.773 -6.983,-0.183 -10.371,2.697 -17.707,2.697 -6.779,0 -9.752,-2.282 -10.858,-3.25 l 5.295,-15.041 12.36,-0.006 c 1.062,-3.09 2.332,-6.84 2.332,-6.84 l -8.199,0 c -0.106,0 2.388,-6.916 2.388,-6.916 l 5.811,-0.004 c 4.531,0 7.397,3.672 7.397,6.852 0,0.613 -0.095,1.204 -0.272,1.759 0,0 -3.169,9.337 -3.186,9.394 -0.674,2.263 -2.817,2.678 -3.351,2.678 l -10.199,0 -1.465,4.112 z" /><path
         inkscape:connector-curvature="0"
         id="path38"
         style="fill:#1f5aa5;fill-opacity:1;fill-rule:nonzero;stroke:none"
         d="m 308.8419,67.1644 c 0,0 2.236,-6.577 2.236,-6.876 0,-0.065 -2.076,0.034 -2.629,0 l 4.726,-13.79 -7.62,0 c 0,0 -4.575,13.833 -4.65,13.833 -0.005,0 -9.24,-0.01 -9.24,-0.01 -1.481,4.403 -2.244,6.843 -2.244,6.843 l 19.421,0 z" /><path
         inkscape:connector-curvature="0"
         id="path42"
         style="fill:#1f5aa5;fill-opacity:1;fill-rule:nonzero;stroke:none"
         d="m 346.7,54.0412 c 0.177,-0.555 0.274,-1.146 0.274,-1.759 0,-3.181 -2.527,-5.762 -5.706,-5.762 l -10.978,0.004 c 0,0 -2.494,6.917 -2.389,6.917 l 11.272,0 c 0,0 -1.269,3.75 -2.331,6.84 l -11.462,0.007 c 0,0 -2.495,6.917 -2.39,6.917 l 16.772,0 c 0.533,0 2.676,-0.416 3.352,-2.68 0.017,-0.057 3.586,-10.484 3.586,-10.484" /><path
         inkscape:connector-curvature="0"
         id="path46"
         style="fill:#1f5aa5;fill-opacity:1;fill-rule:nonzero;stroke:none"
         d="m 378.3548,67.2047 17.527,0 c 0.53,0 2.546,-0.413 3.219,-2.667 0.038,-0.129 6.047,-17.477 6.146,-17.923 l -7.633,0 c -1.938,5.956 -2.318,7.206 -4.562,13.737 l -12.356,-0.033 c 0,0 -2.445,6.886 -2.341,6.886" /><path
         inkscape:connector-curvature="0"
         id="path50"
         style="fill:#1f5aa5;fill-opacity:1;fill-rule:nonzero;stroke:none"
         d="m 392.9892,46.615 -3.95,11.241 -7.447,0 3.752,-11.241 7.645,0 z" /><path
         sodipodi:nodetypes="csccccc"
         inkscape:connector-curvature="0"
         id="path54"
         style="fill:#1f5aa5;fill-opacity:1;fill-rule:nonzero;stroke:none"
         d="m 343.407,67.2047 9.153,0 c 0.53,0 2.548,-0.413 3.219,-2.667 0.039,-0.129 3.81,-10.873 3.909,-11.319 l -7.631,0 c -1.941,5.956 -0.084,0.602 -2.328,7.133 l -3.981,-0.033" /><path
         sodipodi:nodetypes="csccccc"
         inkscape:connector-curvature="0"
         id="path58"
         style="fill:#1f5aa5;fill-opacity:1;fill-rule:nonzero;stroke:none"
         d="m 309.9748,67.2047 9.664,0 c 0.531,0 2.546,-0.413 3.219,-2.667 0.039,-0.129 6.047,-17.477 6.146,-17.923 l -7.633,0 c -1.94,5.956 -2.318,7.206 -4.562,13.737 l -4.491,-0.033" /></g></g></svg>